<svg xmlns="http://www.w3.org/2000/svg" viewBox="0 0 1440 320"><path id="pepe" fill="#0099ff" fill-opacity="1" d="M0,224L36.9,160L73.8,64L110.8,64L147.7,224L184.6,96L221.5,256L258.5,288L295.4,128L332.3,256L369.2,32L406.2,0L443.1,128L480,256L516.9,320L553.8,64L590.8,64L627.7,96L664.6,256L701.5,256L738.5,256L775.4,256L812.3,160L849.2,192L886.2,224L923.1,160L960,192L996.9,0L1033.8,32L1070.8,128L1107.7,64L1144.6,256L1181.5,256L1218.5,192L1255.4,160L1292.3,256L1329.2,96L1366.2,0L1403.1,256L1440,128L1440,320L1403.1,320L1366.2,320L1329.2,320L1292.3,320L1255.4,320L1218.5,320L1181.5,320L1144.6,320L1107.7,320L1070.8,320L1033.8,320L996.9,320L960,320L923.1,320L886.2,320L849.2,320L812.3,320L775.4,320L738.5,320L701.5,320L664.6,320L627.7,320L590.8,320L553.8,320L516.9,320L480,320L443.1,320L406.2,320L369.2,320L332.3,320L295.4,320L258.5,320L221.5,320L184.6,320L147.7,320L110.8,320L73.8,320L36.9,320L0,320Z"></path></svg>